<svg xmlns="http://www.w3.org/2000/svg" viewBox="0 0 1280 400" width="1280" height="400" role="img" aria-label="Stub — pick an event, get a ticket, show it at the gate">
<title>Stub — club event registration, ticketing and check-in</title>
<defs>
  <linearGradient id="sheen" x1="0" y1="0" x2="1" y2="0">
    <stop offset="0%" stop-color="#fff" stop-opacity="0"/><stop offset="50%" stop-color="#fff" stop-opacity=".55"/><stop offset="100%" stop-color="#fff" stop-opacity="0"/>
  </linearGradient>
  <clipPath id="cardClip"><rect x="700" y="56" width="500" height="300" rx="18"/></clipPath>
  <filter id="soft" x="-30%" y="-30%" width="160%" height="160%">
    <feDropShadow dx="0" dy="14" stdDeviation="18" flood-color="#8a5a33" flood-opacity=".18"/>
  </filter>
</defs>
<style>
  .bg{fill:#FBF7F1}
  .ink{fill:#1B1210}.mut{fill:#6A5848}.acc{fill:#FF5A2C}.card{fill:#fff}.line{stroke:#E8DED1}
  .serif{font-family:Georgia,'Times New Roman',serif}
  .sans{font-family:'Helvetica Neue',Helvetica,Arial,sans-serif}
  .fadeUp{opacity:0;animation:fadeUp .9s cubic-bezier(.22,1,.36,1) forwards}
  @keyframes fadeUp{from{opacity:0;transform:translateY(14px)}to{opacity:1;transform:translateY(0)}}
  .ticket{opacity:0;transform-origin:950px 200px;animation:deal 1.15s cubic-bezier(.22,1,.36,1) .25s forwards}
  @keyframes deal{0%{opacity:0;transform:translate(120px,70px) rotate(9deg) scale(.92)}100%{opacity:1;transform:translate(0,0) rotate(0) scale(1)}}
  .q{fill:#1B1210;opacity:0;animation:pop .5s ease-out forwards;animation-delay:inherit}
  @keyframes pop{from{opacity:0}to{opacity:1}}
  .stamp{opacity:0;transform-origin:838px 308px;animation:stamp .6s cubic-bezier(.3,1.7,.5,1) 2.15s forwards}
  @keyframes stamp{0%{opacity:0;transform:scale(2.6) rotate(-8deg)}70%{opacity:1}100%{opacity:1;transform:scale(1) rotate(-8deg)}}
  .meter{transform-origin:left center;animation:fill 1.6s cubic-bezier(.22,1,.36,1) 1.5s both}
  @keyframes fill{from{transform:scaleX(0)}to{transform:scaleX(1)}}
  .sheen{animation:sweep 4.5s ease-in-out 2.8s infinite}
  @keyframes sweep{0%{transform:translateX(-560px)}22%,100%{transform:translateX(560px)}}
  .d1{animation-delay:.15s}.d2{animation-delay:.3s}.d3{animation-delay:.45s}.d4{animation-delay:.6s}.d5{animation-delay:.75s}.d6{animation-delay:.9s}
  @media (prefers-reduced-motion:reduce){*{animation:none!important;opacity:1!important;transform:none!important}}
</style>

<rect class="bg" width="1280" height="400"/>

<!-- wordmark -->
<g class="fadeUp">
  <rect x="72" y="72" width="46" height="33" rx="6" class="acc"/>
  <path d="M90 76 v25" stroke="#FBF7F1" stroke-width="2.4" stroke-dasharray="3 3.4"/>
  <text x="132" y="99" class="serif ink" font-size="34" font-weight="700">Stub</text>
  <path d="M218 78 v20" class="line" stroke-width="1.5"/>
  <text x="234" y="92" class="sans mut" font-size="13.5">DRMC IT Club</text>
  <text x="234" y="107" class="sans mut" font-size="13.5" opacity=".75">Tech Carnival 2026</text>
</g>

<text x="72" y="182" class="serif ink fadeUp d1" font-size="51" font-weight="700">Pick an event, get a ticket,</text>
<text x="72" y="238" class="serif ink fadeUp d2" font-size="51" font-weight="700">show it at the gate.</text>
<text x="72" y="283" class="sans mut fadeUp d3" font-size="16.5">Registration, bKash payments, QR check-in and live monitoring — in one file.</text>

<g class="sans fadeUp d4">
  <rect x="72" y="310" width="150" height="34" rx="17" fill="#fff" class="line" stroke-width="1"/>
  <circle cx="92" cy="327" r="4" class="acc"/><text x="104" y="332" class="ink" font-size="13.5">No build step</text>
</g>
<g class="sans fadeUp d5">
  <rect x="232" y="310" width="166" height="34" rx="17" fill="#fff" class="line" stroke-width="1"/>
  <circle cx="252" cy="327" r="4" fill="#e2136e"/><text x="264" y="332" class="ink" font-size="13.5">bKash · Nagad</text>
</g>
<g class="sans fadeUp d6">
  <rect x="408" y="310" width="150" height="34" rx="17" fill="#fff" class="line" stroke-width="1"/>
  <circle cx="428" cy="327" r="4" fill="#74b8a5"/><text x="440" y="332" class="ink" font-size="13.5">বাংলা + English</text>
</g>

<!-- ticket -->
<g class="ticket" filter="url(#soft)">
  <rect x="700" y="56" width="500" height="300" rx="18" class="card"/>
  <rect x="700" y="56" width="500" height="44" rx="18" class="acc"/>
  <rect x="700" y="82" width="500" height="18" class="acc"/>
  <text x="724" y="85" class="sans" font-size="13.5" font-weight="700" fill="#2B1206">TECH CARNIVAL 2026</text>
  <text x="1176" y="85" class="sans" font-size="13.5" font-weight="700" fill="#2B1206" text-anchor="end">ADMIT ONE</text>

  <text x="724" y="150" class="serif ink" font-size="29" font-weight="700">AI Web Development</text>
  <text x="724" y="183" class="serif ink" font-size="29" font-weight="700">Contest</text>

  <text x="724" y="214" class="sans mut" font-size="12.5">TEAM</text>
  <text x="724" y="235" class="sans ink" font-size="15.5" font-weight="700">TahCreations</text>
  <text x="878" y="214" class="sans mut" font-size="12.5">DATE</text>
  <text x="878" y="235" class="sans ink" font-size="15.5" font-weight="700">15 Oct, 10 am</text>

  <rect x="724" y="256" width="226" height="6" rx="3" fill="#EFE6DA"/>
  <rect x="724" y="256" width="136" height="6" rx="3" class="acc meter"/>

  <path d="M986 68 v276" class="line" stroke-width="2.5" stroke-dasharray="7 7"/>
  <circle cx="986" cy="56" r="13" class="bg"/><circle cx="986" cy="356" r="13" class="bg"/>

  <rect class="q" x="1027.00" y="158.00" width="4.85" height="4.85" style="animation-delay:0.000s"/><rect class="q" x="1031.55" y="158.00" width="4.85" height="4.85" style="animation-delay:0.011s"/><rect class="q" x="1036.10" y="158.00" width="4.85" height="4.85" style="animation-delay:0.022s"/><rect class="q" x="1040.66" y="158.00" width="4.85" height="4.85" style="animation-delay:0.034s"/><rect class="q" x="1045.21" y="158.00" width="4.85" height="4.85" style="animation-delay:0.045s"/><rect class="q" x="1049.76" y="158.00" width="4.85" height="4.85" style="animation-delay:0.056s"/><rect class="q" x="1054.31" y="158.00" width="4.85" height="4.85" style="animation-delay:0.067s"/><rect class="q" x="1063.41" y="158.00" width="4.85" height="4.85" style="animation-delay:0.090s"/><rect class="q" x="1072.52" y="158.00" width="4.85" height="4.85" style="animation-delay:0.112s"/><rect class="q" x="1086.17" y="158.00" width="4.85" height="4.85" style="animation-delay:0.146s"/><rect class="q" x="1090.72" y="158.00" width="4.85" height="4.85" style="animation-delay:0.002s"/><rect class="q" x="1095.28" y="158.00" width="4.85" height="4.85" style="animation-delay:0.013s"/><rect class="q" x="1108.93" y="158.00" width="4.85" height="4.85" style="animation-delay:0.046s"/><rect class="q" x="1113.48" y="158.00" width="4.85" height="4.85" style="animation-delay:0.058s"/><rect class="q" x="1118.03" y="158.00" width="4.85" height="4.85" style="animation-delay:0.069s"/><rect class="q" x="1127.14" y="158.00" width="4.85" height="4.85" style="animation-delay:0.091s"/><rect class="q" x="1131.69" y="158.00" width="4.85" height="4.85" style="animation-delay:0.102s"/><rect class="q" x="1136.24" y="158.00" width="4.85" height="4.85" style="animation-delay:0.114s"/><rect class="q" x="1140.79" y="158.00" width="4.85" height="4.85" style="animation-delay:0.125s"/><rect class="q" x="1145.34" y="158.00" width="4.85" height="4.85" style="animation-delay:0.136s"/><rect class="q" x="1149.90" y="158.00" width="4.85" height="4.85" style="animation-delay:0.147s"/><rect class="q" x="1154.45" y="158.00" width="4.85" height="4.85" style="animation-delay:0.003s"/><rect class="q" x="1027.00" y="162.55" width="4.85" height="4.85" style="animation-delay:0.011s"/><rect class="q" x="1054.31" y="162.55" width="4.85" height="4.85" style="animation-delay:0.078s"/><rect class="q" x="1063.41" y="162.55" width="4.85" height="4.85" style="animation-delay:0.101s"/><rect class="q" x="1072.52" y="162.55" width="4.85" height="4.85" style="animation-delay:0.123s"/><rect class="q" x="1081.62" y="162.55" width="4.85" height="4.85" style="animation-delay:0.146s"/><rect class="q" x="1086.17" y="162.55" width="4.85" height="4.85" style="animation-delay:0.002s"/><rect class="q" x="1099.83" y="162.55" width="4.85" height="4.85" style="animation-delay:0.035s"/><rect class="q" x="1104.38" y="162.55" width="4.85" height="4.85" style="animation-delay:0.046s"/><rect class="q" x="1108.93" y="162.55" width="4.85" height="4.85" style="animation-delay:0.058s"/><rect class="q" x="1127.14" y="162.55" width="4.85" height="4.85" style="animation-delay:0.102s"/><rect class="q" x="1154.45" y="162.55" width="4.85" height="4.85" style="animation-delay:0.014s"/><rect class="q" x="1027.00" y="167.10" width="4.85" height="4.85" style="animation-delay:0.022s"/><rect class="q" x="1036.10" y="167.10" width="4.85" height="4.85" style="animation-delay:0.045s"/><rect class="q" x="1040.66" y="167.10" width="4.85" height="4.85" style="animation-delay:0.056s"/><rect class="q" x="1045.21" y="167.10" width="4.85" height="4.85" style="animation-delay:0.067s"/><rect class="q" x="1054.31" y="167.10" width="4.85" height="4.85" style="animation-delay:0.090s"/><rect class="q" x="1072.52" y="167.10" width="4.85" height="4.85" style="animation-delay:0.134s"/><rect class="q" x="1099.83" y="167.10" width="4.85" height="4.85" style="animation-delay:0.046s"/><rect class="q" x="1108.93" y="167.10" width="4.85" height="4.85" style="animation-delay:0.069s"/><rect class="q" x="1127.14" y="167.10" width="4.85" height="4.85" style="animation-delay:0.114s"/><rect class="q" x="1136.24" y="167.10" width="4.85" height="4.85" style="animation-delay:0.136s"/><rect class="q" x="1140.79" y="167.10" width="4.85" height="4.85" style="animation-delay:0.147s"/><rect class="q" x="1145.34" y="167.10" width="4.85" height="4.85" style="animation-delay:0.003s"/><rect class="q" x="1154.45" y="167.10" width="4.85" height="4.85" style="animation-delay:0.026s"/><rect class="q" x="1027.00" y="171.66" width="4.85" height="4.85" style="animation-delay:0.034s"/><rect class="q" x="1036.10" y="171.66" width="4.85" height="4.85" style="animation-delay:0.056s"/><rect class="q" x="1040.66" y="171.66" width="4.85" height="4.85" style="animation-delay:0.067s"/><rect class="q" x="1045.21" y="171.66" width="4.85" height="4.85" style="animation-delay:0.078s"/><rect class="q" x="1054.31" y="171.66" width="4.85" height="4.85" style="animation-delay:0.101s"/><rect class="q" x="1063.41" y="171.66" width="4.85" height="4.85" style="animation-delay:0.123s"/><rect class="q" x="1067.97" y="171.66" width="4.85" height="4.85" style="animation-delay:0.134s"/><rect class="q" x="1077.07" y="171.66" width="4.85" height="4.85" style="animation-delay:0.002s"/><rect class="q" x="1081.62" y="171.66" width="4.85" height="4.85" style="animation-delay:0.013s"/><rect class="q" x="1090.72" y="171.66" width="4.85" height="4.85" style="animation-delay:0.035s"/><rect class="q" x="1095.28" y="171.66" width="4.85" height="4.85" style="animation-delay:0.046s"/><rect class="q" x="1104.38" y="171.66" width="4.85" height="4.85" style="animation-delay:0.069s"/><rect class="q" x="1127.14" y="171.66" width="4.85" height="4.85" style="animation-delay:0.125s"/><rect class="q" x="1136.24" y="171.66" width="4.85" height="4.85" style="animation-delay:0.147s"/><rect class="q" x="1140.79" y="171.66" width="4.85" height="4.85" style="animation-delay:0.003s"/><rect class="q" x="1145.34" y="171.66" width="4.85" height="4.85" style="animation-delay:0.014s"/><rect class="q" x="1154.45" y="171.66" width="4.85" height="4.85" style="animation-delay:0.037s"/><rect class="q" x="1027.00" y="176.21" width="4.85" height="4.85" style="animation-delay:0.045s"/><rect class="q" x="1036.10" y="176.21" width="4.85" height="4.85" style="animation-delay:0.067s"/><rect class="q" x="1040.66" y="176.21" width="4.85" height="4.85" style="animation-delay:0.078s"/><rect class="q" x="1045.21" y="176.21" width="4.85" height="4.85" style="animation-delay:0.090s"/><rect class="q" x="1054.31" y="176.21" width="4.85" height="4.85" style="animation-delay:0.112s"/><rect class="q" x="1067.97" y="176.21" width="4.85" height="4.85" style="animation-delay:0.146s"/><rect class="q" x="1072.52" y="176.21" width="4.85" height="4.85" style="animation-delay:0.002s"/><rect class="q" x="1090.72" y="176.21" width="4.85" height="4.85" style="animation-delay:0.046s"/><rect class="q" x="1099.83" y="176.21" width="4.85" height="4.85" style="animation-delay:0.069s"/><rect class="q" x="1113.48" y="176.21" width="4.85" height="4.85" style="animation-delay:0.102s"/><rect class="q" x="1127.14" y="176.21" width="4.85" height="4.85" style="animation-delay:0.136s"/><rect class="q" x="1136.24" y="176.21" width="4.85" height="4.85" style="animation-delay:0.003s"/><rect class="q" x="1140.79" y="176.21" width="4.85" height="4.85" style="animation-delay:0.014s"/><rect class="q" x="1145.34" y="176.21" width="4.85" height="4.85" style="animation-delay:0.026s"/><rect class="q" x="1154.45" y="176.21" width="4.85" height="4.85" style="animation-delay:0.048s"/><rect class="q" x="1027.00" y="180.76" width="4.85" height="4.85" style="animation-delay:0.056s"/><rect class="q" x="1054.31" y="180.76" width="4.85" height="4.85" style="animation-delay:0.123s"/><rect class="q" x="1067.97" y="180.76" width="4.85" height="4.85" style="animation-delay:0.002s"/><rect class="q" x="1077.07" y="180.76" width="4.85" height="4.85" style="animation-delay:0.024s"/><rect class="q" x="1081.62" y="180.76" width="4.85" height="4.85" style="animation-delay:0.035s"/><rect class="q" x="1086.17" y="180.76" width="4.85" height="4.85" style="animation-delay:0.046s"/><rect class="q" x="1095.28" y="180.76" width="4.85" height="4.85" style="animation-delay:0.069s"/><rect class="q" x="1099.83" y="180.76" width="4.85" height="4.85" style="animation-delay:0.080s"/><rect class="q" x="1108.93" y="180.76" width="4.85" height="4.85" style="animation-delay:0.102s"/><rect class="q" x="1113.48" y="180.76" width="4.85" height="4.85" style="animation-delay:0.114s"/><rect class="q" x="1127.14" y="180.76" width="4.85" height="4.85" style="animation-delay:0.147s"/><rect class="q" x="1154.45" y="180.76" width="4.85" height="4.85" style="animation-delay:0.059s"/><rect class="q" x="1027.00" y="185.31" width="4.85" height="4.85" style="animation-delay:0.067s"/><rect class="q" x="1031.55" y="185.31" width="4.85" height="4.85" style="animation-delay:0.078s"/><rect class="q" x="1036.10" y="185.31" width="4.85" height="4.85" style="animation-delay:0.090s"/><rect class="q" x="1040.66" y="185.31" width="4.85" height="4.85" style="animation-delay:0.101s"/><rect class="q" x="1045.21" y="185.31" width="4.85" height="4.85" style="animation-delay:0.112s"/><rect class="q" x="1049.76" y="185.31" width="4.85" height="4.85" style="animation-delay:0.123s"/><rect class="q" x="1054.31" y="185.31" width="4.85" height="4.85" style="animation-delay:0.134s"/><rect class="q" x="1063.41" y="185.31" width="4.85" height="4.85" style="animation-delay:0.002s"/><rect class="q" x="1072.52" y="185.31" width="4.85" height="4.85" style="animation-delay:0.024s"/><rect class="q" x="1081.62" y="185.31" width="4.85" height="4.85" style="animation-delay:0.046s"/><rect class="q" x="1090.72" y="185.31" width="4.85" height="4.85" style="animation-delay:0.069s"/><rect class="q" x="1099.83" y="185.31" width="4.85" height="4.85" style="animation-delay:0.091s"/><rect class="q" x="1108.93" y="185.31" width="4.85" height="4.85" style="animation-delay:0.114s"/><rect class="q" x="1118.03" y="185.31" width="4.85" height="4.85" style="animation-delay:0.136s"/><rect class="q" x="1127.14" y="185.31" width="4.85" height="4.85" style="animation-delay:0.003s"/><rect class="q" x="1131.69" y="185.31" width="4.85" height="4.85" style="animation-delay:0.014s"/><rect class="q" x="1136.24" y="185.31" width="4.85" height="4.85" style="animation-delay:0.026s"/><rect class="q" x="1140.79" y="185.31" width="4.85" height="4.85" style="animation-delay:0.037s"/><rect class="q" x="1145.34" y="185.31" width="4.85" height="4.85" style="animation-delay:0.048s"/><rect class="q" x="1149.90" y="185.31" width="4.85" height="4.85" style="animation-delay:0.059s"/><rect class="q" x="1154.45" y="185.31" width="4.85" height="4.85" style="animation-delay:0.070s"/><rect class="q" x="1063.41" y="189.86" width="4.85" height="4.85" style="animation-delay:0.013s"/><rect class="q" x="1067.97" y="189.86" width="4.85" height="4.85" style="animation-delay:0.024s"/><rect class="q" x="1077.07" y="189.86" width="4.85" height="4.85" style="animation-delay:0.046s"/><rect class="q" x="1095.28" y="189.86" width="4.85" height="4.85" style="animation-delay:0.091s"/><rect class="q" x="1099.83" y="189.86" width="4.85" height="4.85" style="animation-delay:0.102s"/><rect class="q" x="1104.38" y="189.86" width="4.85" height="4.85" style="animation-delay:0.114s"/><rect class="q" x="1113.48" y="189.86" width="4.85" height="4.85" style="animation-delay:0.136s"/><rect class="q" x="1118.03" y="189.86" width="4.85" height="4.85" style="animation-delay:0.147s"/><rect class="q" x="1027.00" y="194.41" width="4.85" height="4.85" style="animation-delay:0.090s"/><rect class="q" x="1036.10" y="194.41" width="4.85" height="4.85" style="animation-delay:0.112s"/><rect class="q" x="1040.66" y="194.41" width="4.85" height="4.85" style="animation-delay:0.123s"/><rect class="q" x="1049.76" y="194.41" width="4.85" height="4.85" style="animation-delay:0.146s"/><rect class="q" x="1054.31" y="194.41" width="4.85" height="4.85" style="animation-delay:0.002s"/><rect class="q" x="1058.86" y="194.41" width="4.85" height="4.85" style="animation-delay:0.013s"/><rect class="q" x="1072.52" y="194.41" width="4.85" height="4.85" style="animation-delay:0.046s"/><rect class="q" x="1077.07" y="194.41" width="4.85" height="4.85" style="animation-delay:0.058s"/><rect class="q" x="1081.62" y="194.41" width="4.85" height="4.85" style="animation-delay:0.069s"/><rect class="q" x="1086.17" y="194.41" width="4.85" height="4.85" style="animation-delay:0.080s"/><rect class="q" x="1095.28" y="194.41" width="4.85" height="4.85" style="animation-delay:0.102s"/><rect class="q" x="1104.38" y="194.41" width="4.85" height="4.85" style="animation-delay:0.125s"/><rect class="q" x="1113.48" y="194.41" width="4.85" height="4.85" style="animation-delay:0.147s"/><rect class="q" x="1118.03" y="194.41" width="4.85" height="4.85" style="animation-delay:0.003s"/><rect class="q" x="1127.14" y="194.41" width="4.85" height="4.85" style="animation-delay:0.026s"/><rect class="q" x="1140.79" y="194.41" width="4.85" height="4.85" style="animation-delay:0.059s"/><rect class="q" x="1149.90" y="194.41" width="4.85" height="4.85" style="animation-delay:0.082s"/><rect class="q" x="1154.45" y="194.41" width="4.85" height="4.85" style="animation-delay:0.093s"/><rect class="q" x="1031.55" y="198.97" width="4.85" height="4.85" style="animation-delay:0.112s"/><rect class="q" x="1036.10" y="198.97" width="4.85" height="4.85" style="animation-delay:0.123s"/><rect class="q" x="1040.66" y="198.97" width="4.85" height="4.85" style="animation-delay:0.134s"/><rect class="q" x="1045.21" y="198.97" width="4.85" height="4.85" style="animation-delay:0.146s"/><rect class="q" x="1049.76" y="198.97" width="4.85" height="4.85" style="animation-delay:0.002s"/><rect class="q" x="1058.86" y="198.97" width="4.85" height="4.85" style="animation-delay:0.024s"/><rect class="q" x="1063.41" y="198.97" width="4.85" height="4.85" style="animation-delay:0.035s"/><rect class="q" x="1072.52" y="198.97" width="4.85" height="4.85" style="animation-delay:0.058s"/><rect class="q" x="1077.07" y="198.97" width="4.85" height="4.85" style="animation-delay:0.069s"/><rect class="q" x="1086.17" y="198.97" width="4.85" height="4.85" style="animation-delay:0.091s"/><rect class="q" x="1090.72" y="198.97" width="4.85" height="4.85" style="animation-delay:0.102s"/><rect class="q" x="1095.28" y="198.97" width="4.85" height="4.85" style="animation-delay:0.114s"/><rect class="q" x="1104.38" y="198.97" width="4.85" height="4.85" style="animation-delay:0.136s"/><rect class="q" x="1108.93" y="198.97" width="4.85" height="4.85" style="animation-delay:0.147s"/><rect class="q" x="1113.48" y="198.97" width="4.85" height="4.85" style="animation-delay:0.003s"/><rect class="q" x="1118.03" y="198.97" width="4.85" height="4.85" style="animation-delay:0.014s"/><rect class="q" x="1122.59" y="198.97" width="4.85" height="4.85" style="animation-delay:0.026s"/><rect class="q" x="1127.14" y="198.97" width="4.85" height="4.85" style="animation-delay:0.037s"/><rect class="q" x="1136.24" y="198.97" width="4.85" height="4.85" style="animation-delay:0.059s"/><rect class="q" x="1154.45" y="198.97" width="4.85" height="4.85" style="animation-delay:0.104s"/><rect class="q" x="1045.21" y="203.52" width="4.85" height="4.85" style="animation-delay:0.002s"/><rect class="q" x="1054.31" y="203.52" width="4.85" height="4.85" style="animation-delay:0.024s"/><rect class="q" x="1067.97" y="203.52" width="4.85" height="4.85" style="animation-delay:0.058s"/><rect class="q" x="1077.07" y="203.52" width="4.85" height="4.85" style="animation-delay:0.080s"/><rect class="q" x="1086.17" y="203.52" width="4.85" height="4.85" style="animation-delay:0.102s"/><rect class="q" x="1099.83" y="203.52" width="4.85" height="4.85" style="animation-delay:0.136s"/><rect class="q" x="1108.93" y="203.52" width="4.85" height="4.85" style="animation-delay:0.003s"/><rect class="q" x="1122.59" y="203.52" width="4.85" height="4.85" style="animation-delay:0.037s"/><rect class="q" x="1127.14" y="203.52" width="4.85" height="4.85" style="animation-delay:0.048s"/><rect class="q" x="1131.69" y="203.52" width="4.85" height="4.85" style="animation-delay:0.059s"/><rect class="q" x="1136.24" y="203.52" width="4.85" height="4.85" style="animation-delay:0.070s"/><rect class="q" x="1145.34" y="203.52" width="4.85" height="4.85" style="animation-delay:0.093s"/><rect class="q" x="1149.90" y="203.52" width="4.85" height="4.85" style="animation-delay:0.104s"/><rect class="q" x="1027.00" y="208.07" width="4.85" height="4.85" style="animation-delay:0.123s"/><rect class="q" x="1036.10" y="208.07" width="4.85" height="4.85" style="animation-delay:0.146s"/><rect class="q" x="1040.66" y="208.07" width="4.85" height="4.85" style="animation-delay:0.002s"/><rect class="q" x="1045.21" y="208.07" width="4.85" height="4.85" style="animation-delay:0.013s"/><rect class="q" x="1049.76" y="208.07" width="4.85" height="4.85" style="animation-delay:0.024s"/><rect class="q" x="1058.86" y="208.07" width="4.85" height="4.85" style="animation-delay:0.046s"/><rect class="q" x="1067.97" y="208.07" width="4.85" height="4.85" style="animation-delay:0.069s"/><rect class="q" x="1072.52" y="208.07" width="4.85" height="4.85" style="animation-delay:0.080s"/><rect class="q" x="1077.07" y="208.07" width="4.85" height="4.85" style="animation-delay:0.091s"/><rect class="q" x="1099.83" y="208.07" width="4.85" height="4.85" style="animation-delay:0.147s"/><rect class="q" x="1113.48" y="208.07" width="4.85" height="4.85" style="animation-delay:0.026s"/><rect class="q" x="1118.03" y="208.07" width="4.85" height="4.85" style="animation-delay:0.037s"/><rect class="q" x="1122.59" y="208.07" width="4.85" height="4.85" style="animation-delay:0.048s"/><rect class="q" x="1127.14" y="208.07" width="4.85" height="4.85" style="animation-delay:0.059s"/><rect class="q" x="1154.45" y="208.07" width="4.85" height="4.85" style="animation-delay:0.126s"/><rect class="q" x="1027.00" y="212.62" width="4.85" height="4.85" style="animation-delay:0.134s"/><rect class="q" x="1036.10" y="212.62" width="4.85" height="4.85" style="animation-delay:0.002s"/><rect class="q" x="1040.66" y="212.62" width="4.85" height="4.85" style="animation-delay:0.013s"/><rect class="q" x="1049.76" y="212.62" width="4.85" height="4.85" style="animation-delay:0.035s"/><rect class="q" x="1054.31" y="212.62" width="4.85" height="4.85" style="animation-delay:0.046s"/><rect class="q" x="1058.86" y="212.62" width="4.85" height="4.85" style="animation-delay:0.058s"/><rect class="q" x="1077.07" y="212.62" width="4.85" height="4.85" style="animation-delay:0.102s"/><rect class="q" x="1081.62" y="212.62" width="4.85" height="4.85" style="animation-delay:0.114s"/><rect class="q" x="1090.72" y="212.62" width="4.85" height="4.85" style="animation-delay:0.136s"/><rect class="q" x="1095.28" y="212.62" width="4.85" height="4.85" style="animation-delay:0.147s"/><rect class="q" x="1104.38" y="212.62" width="4.85" height="4.85" style="animation-delay:0.014s"/><rect class="q" x="1140.79" y="212.62" width="4.85" height="4.85" style="animation-delay:0.104s"/><rect class="q" x="1145.34" y="212.62" width="4.85" height="4.85" style="animation-delay:0.115s"/><rect class="q" x="1036.10" y="217.17" width="4.85" height="4.85" style="animation-delay:0.013s"/><rect class="q" x="1040.66" y="217.17" width="4.85" height="4.85" style="animation-delay:0.024s"/><rect class="q" x="1045.21" y="217.17" width="4.85" height="4.85" style="animation-delay:0.035s"/><rect class="q" x="1063.41" y="217.17" width="4.85" height="4.85" style="animation-delay:0.080s"/><rect class="q" x="1077.07" y="217.17" width="4.85" height="4.85" style="animation-delay:0.114s"/><rect class="q" x="1090.72" y="217.17" width="4.85" height="4.85" style="animation-delay:0.147s"/><rect class="q" x="1099.83" y="217.17" width="4.85" height="4.85" style="animation-delay:0.014s"/><rect class="q" x="1104.38" y="217.17" width="4.85" height="4.85" style="animation-delay:0.026s"/><rect class="q" x="1113.48" y="217.17" width="4.85" height="4.85" style="animation-delay:0.048s"/><rect class="q" x="1127.14" y="217.17" width="4.85" height="4.85" style="animation-delay:0.082s"/><rect class="q" x="1145.34" y="217.17" width="4.85" height="4.85" style="animation-delay:0.126s"/><rect class="q" x="1149.90" y="217.17" width="4.85" height="4.85" style="animation-delay:0.138s"/><rect class="q" x="1154.45" y="217.17" width="4.85" height="4.85" style="animation-delay:0.149s"/><rect class="q" x="1027.00" y="221.72" width="4.85" height="4.85" style="animation-delay:0.002s"/><rect class="q" x="1036.10" y="221.72" width="4.85" height="4.85" style="animation-delay:0.024s"/><rect class="q" x="1040.66" y="221.72" width="4.85" height="4.85" style="animation-delay:0.035s"/><rect class="q" x="1054.31" y="221.72" width="4.85" height="4.85" style="animation-delay:0.069s"/><rect class="q" x="1063.41" y="221.72" width="4.85" height="4.85" style="animation-delay:0.091s"/><rect class="q" x="1067.97" y="221.72" width="4.85" height="4.85" style="animation-delay:0.102s"/><rect class="q" x="1072.52" y="221.72" width="4.85" height="4.85" style="animation-delay:0.114s"/><rect class="q" x="1077.07" y="221.72" width="4.85" height="4.85" style="animation-delay:0.125s"/><rect class="q" x="1081.62" y="221.72" width="4.85" height="4.85" style="animation-delay:0.136s"/><rect class="q" x="1086.17" y="221.72" width="4.85" height="4.85" style="animation-delay:0.147s"/><rect class="q" x="1095.28" y="221.72" width="4.85" height="4.85" style="animation-delay:0.014s"/><rect class="q" x="1099.83" y="221.72" width="4.85" height="4.85" style="animation-delay:0.026s"/><rect class="q" x="1113.48" y="221.72" width="4.85" height="4.85" style="animation-delay:0.059s"/><rect class="q" x="1122.59" y="221.72" width="4.85" height="4.85" style="animation-delay:0.082s"/><rect class="q" x="1127.14" y="221.72" width="4.85" height="4.85" style="animation-delay:0.093s"/><rect class="q" x="1131.69" y="221.72" width="4.85" height="4.85" style="animation-delay:0.104s"/><rect class="q" x="1145.34" y="221.72" width="4.85" height="4.85" style="animation-delay:0.138s"/><rect class="q" x="1149.90" y="221.72" width="4.85" height="4.85" style="animation-delay:0.149s"/><rect class="q" x="1154.45" y="221.72" width="4.85" height="4.85" style="animation-delay:0.005s"/><rect class="q" x="1036.10" y="226.28" width="4.85" height="4.85" style="animation-delay:0.035s"/><rect class="q" x="1045.21" y="226.28" width="4.85" height="4.85" style="animation-delay:0.058s"/><rect class="q" x="1049.76" y="226.28" width="4.85" height="4.85" style="animation-delay:0.069s"/><rect class="q" x="1081.62" y="226.28" width="4.85" height="4.85" style="animation-delay:0.147s"/><rect class="q" x="1090.72" y="226.28" width="4.85" height="4.85" style="animation-delay:0.014s"/><rect class="q" x="1099.83" y="226.28" width="4.85" height="4.85" style="animation-delay:0.037s"/><rect class="q" x="1113.48" y="226.28" width="4.85" height="4.85" style="animation-delay:0.070s"/><rect class="q" x="1118.03" y="226.28" width="4.85" height="4.85" style="animation-delay:0.082s"/><rect class="q" x="1122.59" y="226.28" width="4.85" height="4.85" style="animation-delay:0.093s"/><rect class="q" x="1131.69" y="226.28" width="4.85" height="4.85" style="animation-delay:0.115s"/><rect class="q" x="1136.24" y="226.28" width="4.85" height="4.85" style="animation-delay:0.126s"/><rect class="q" x="1149.90" y="226.28" width="4.85" height="4.85" style="animation-delay:0.005s"/><rect class="q" x="1031.55" y="230.83" width="4.85" height="4.85" style="animation-delay:0.035s"/><rect class="q" x="1036.10" y="230.83" width="4.85" height="4.85" style="animation-delay:0.046s"/><rect class="q" x="1040.66" y="230.83" width="4.85" height="4.85" style="animation-delay:0.058s"/><rect class="q" x="1054.31" y="230.83" width="4.85" height="4.85" style="animation-delay:0.091s"/><rect class="q" x="1058.86" y="230.83" width="4.85" height="4.85" style="animation-delay:0.102s"/><rect class="q" x="1067.97" y="230.83" width="4.85" height="4.85" style="animation-delay:0.125s"/><rect class="q" x="1077.07" y="230.83" width="4.85" height="4.85" style="animation-delay:0.147s"/><rect class="q" x="1081.62" y="230.83" width="4.85" height="4.85" style="animation-delay:0.003s"/><rect class="q" x="1090.72" y="230.83" width="4.85" height="4.85" style="animation-delay:0.026s"/><rect class="q" x="1095.28" y="230.83" width="4.85" height="4.85" style="animation-delay:0.037s"/><rect class="q" x="1099.83" y="230.83" width="4.85" height="4.85" style="animation-delay:0.048s"/><rect class="q" x="1108.93" y="230.83" width="4.85" height="4.85" style="animation-delay:0.070s"/><rect class="q" x="1122.59" y="230.83" width="4.85" height="4.85" style="animation-delay:0.104s"/><rect class="q" x="1136.24" y="230.83" width="4.85" height="4.85" style="animation-delay:0.138s"/><rect class="q" x="1140.79" y="230.83" width="4.85" height="4.85" style="animation-delay:0.149s"/><rect class="q" x="1149.90" y="230.83" width="4.85" height="4.85" style="animation-delay:0.016s"/><rect class="q" x="1045.21" y="235.38" width="4.85" height="4.85" style="animation-delay:0.080s"/><rect class="q" x="1058.86" y="235.38" width="4.85" height="4.85" style="animation-delay:0.114s"/><rect class="q" x="1067.97" y="235.38" width="4.85" height="4.85" style="animation-delay:0.136s"/><rect class="q" x="1090.72" y="235.38" width="4.85" height="4.85" style="animation-delay:0.037s"/><rect class="q" x="1099.83" y="235.38" width="4.85" height="4.85" style="animation-delay:0.059s"/><rect class="q" x="1108.93" y="235.38" width="4.85" height="4.85" style="animation-delay:0.082s"/><rect class="q" x="1118.03" y="235.38" width="4.85" height="4.85" style="animation-delay:0.104s"/><rect class="q" x="1122.59" y="235.38" width="4.85" height="4.85" style="animation-delay:0.115s"/><rect class="q" x="1131.69" y="235.38" width="4.85" height="4.85" style="animation-delay:0.138s"/><rect class="q" x="1140.79" y="235.38" width="4.85" height="4.85" style="animation-delay:0.005s"/><rect class="q" x="1145.34" y="235.38" width="4.85" height="4.85" style="animation-delay:0.016s"/><rect class="q" x="1149.90" y="235.38" width="4.85" height="4.85" style="animation-delay:0.027s"/><rect class="q" x="1027.00" y="239.93" width="4.85" height="4.85" style="animation-delay:0.046s"/><rect class="q" x="1045.21" y="239.93" width="4.85" height="4.85" style="animation-delay:0.091s"/><rect class="q" x="1049.76" y="239.93" width="4.85" height="4.85" style="animation-delay:0.102s"/><rect class="q" x="1054.31" y="239.93" width="4.85" height="4.85" style="animation-delay:0.114s"/><rect class="q" x="1072.52" y="239.93" width="4.85" height="4.85" style="animation-delay:0.003s"/><rect class="q" x="1077.07" y="239.93" width="4.85" height="4.85" style="animation-delay:0.014s"/><rect class="q" x="1081.62" y="239.93" width="4.85" height="4.85" style="animation-delay:0.026s"/><rect class="q" x="1086.17" y="239.93" width="4.85" height="4.85" style="animation-delay:0.037s"/><rect class="q" x="1090.72" y="239.93" width="4.85" height="4.85" style="animation-delay:0.048s"/><rect class="q" x="1095.28" y="239.93" width="4.85" height="4.85" style="animation-delay:0.059s"/><rect class="q" x="1099.83" y="239.93" width="4.85" height="4.85" style="animation-delay:0.070s"/><rect class="q" x="1108.93" y="239.93" width="4.85" height="4.85" style="animation-delay:0.093s"/><rect class="q" x="1122.59" y="239.93" width="4.85" height="4.85" style="animation-delay:0.126s"/><rect class="q" x="1136.24" y="239.93" width="4.85" height="4.85" style="animation-delay:0.005s"/><rect class="q" x="1145.34" y="239.93" width="4.85" height="4.85" style="animation-delay:0.027s"/><rect class="q" x="1045.21" y="244.48" width="4.85" height="4.85" style="animation-delay:0.102s"/><rect class="q" x="1049.76" y="244.48" width="4.85" height="4.85" style="animation-delay:0.114s"/><rect class="q" x="1067.97" y="244.48" width="4.85" height="4.85" style="animation-delay:0.003s"/><rect class="q" x="1072.52" y="244.48" width="4.85" height="4.85" style="animation-delay:0.014s"/><rect class="q" x="1081.62" y="244.48" width="4.85" height="4.85" style="animation-delay:0.037s"/><rect class="q" x="1086.17" y="244.48" width="4.85" height="4.85" style="animation-delay:0.048s"/><rect class="q" x="1090.72" y="244.48" width="4.85" height="4.85" style="animation-delay:0.059s"/><rect class="q" x="1104.38" y="244.48" width="4.85" height="4.85" style="animation-delay:0.093s"/><rect class="q" x="1113.48" y="244.48" width="4.85" height="4.85" style="animation-delay:0.115s"/><rect class="q" x="1127.14" y="244.48" width="4.85" height="4.85" style="animation-delay:0.149s"/><rect class="q" x="1145.34" y="244.48" width="4.85" height="4.85" style="animation-delay:0.038s"/><rect class="q" x="1031.55" y="249.03" width="4.85" height="4.85" style="animation-delay:0.080s"/><rect class="q" x="1049.76" y="249.03" width="4.85" height="4.85" style="animation-delay:0.125s"/><rect class="q" x="1054.31" y="249.03" width="4.85" height="4.85" style="animation-delay:0.136s"/><rect class="q" x="1067.97" y="249.03" width="4.85" height="4.85" style="animation-delay:0.014s"/><rect class="q" x="1072.52" y="249.03" width="4.85" height="4.85" style="animation-delay:0.026s"/><rect class="q" x="1077.07" y="249.03" width="4.85" height="4.85" style="animation-delay:0.037s"/><rect class="q" x="1081.62" y="249.03" width="4.85" height="4.85" style="animation-delay:0.048s"/><rect class="q" x="1086.17" y="249.03" width="4.85" height="4.85" style="animation-delay:0.059s"/><rect class="q" x="1090.72" y="249.03" width="4.85" height="4.85" style="animation-delay:0.070s"/><rect class="q" x="1099.83" y="249.03" width="4.85" height="4.85" style="animation-delay:0.093s"/><rect class="q" x="1104.38" y="249.03" width="4.85" height="4.85" style="animation-delay:0.104s"/><rect class="q" x="1108.93" y="249.03" width="4.85" height="4.85" style="animation-delay:0.115s"/><rect class="q" x="1118.03" y="249.03" width="4.85" height="4.85" style="animation-delay:0.138s"/><rect class="q" x="1122.59" y="249.03" width="4.85" height="4.85" style="animation-delay:0.149s"/><rect class="q" x="1127.14" y="249.03" width="4.85" height="4.85" style="animation-delay:0.005s"/><rect class="q" x="1131.69" y="249.03" width="4.85" height="4.85" style="animation-delay:0.016s"/><rect class="q" x="1136.24" y="249.03" width="4.85" height="4.85" style="animation-delay:0.027s"/><rect class="q" x="1140.79" y="249.03" width="4.85" height="4.85" style="animation-delay:0.038s"/><rect class="q" x="1145.34" y="249.03" width="4.85" height="4.85" style="animation-delay:0.050s"/><rect class="q" x="1063.41" y="253.59" width="4.85" height="4.85" style="animation-delay:0.014s"/><rect class="q" x="1067.97" y="253.59" width="4.85" height="4.85" style="animation-delay:0.026s"/><rect class="q" x="1072.52" y="253.59" width="4.85" height="4.85" style="animation-delay:0.037s"/><rect class="q" x="1095.28" y="253.59" width="4.85" height="4.85" style="animation-delay:0.093s"/><rect class="q" x="1099.83" y="253.59" width="4.85" height="4.85" style="animation-delay:0.104s"/><rect class="q" x="1118.03" y="253.59" width="4.85" height="4.85" style="animation-delay:0.149s"/><rect class="q" x="1136.24" y="253.59" width="4.85" height="4.85" style="animation-delay:0.038s"/><rect class="q" x="1140.79" y="253.59" width="4.85" height="4.85" style="animation-delay:0.050s"/><rect class="q" x="1145.34" y="253.59" width="4.85" height="4.85" style="animation-delay:0.061s"/><rect class="q" x="1149.90" y="253.59" width="4.85" height="4.85" style="animation-delay:0.072s"/><rect class="q" x="1154.45" y="253.59" width="4.85" height="4.85" style="animation-delay:0.083s"/><rect class="q" x="1027.00" y="258.14" width="4.85" height="4.85" style="animation-delay:0.091s"/><rect class="q" x="1031.55" y="258.14" width="4.85" height="4.85" style="animation-delay:0.102s"/><rect class="q" x="1036.10" y="258.14" width="4.85" height="4.85" style="animation-delay:0.114s"/><rect class="q" x="1040.66" y="258.14" width="4.85" height="4.85" style="animation-delay:0.125s"/><rect class="q" x="1045.21" y="258.14" width="4.85" height="4.85" style="animation-delay:0.136s"/><rect class="q" x="1049.76" y="258.14" width="4.85" height="4.85" style="animation-delay:0.147s"/><rect class="q" x="1054.31" y="258.14" width="4.85" height="4.85" style="animation-delay:0.003s"/><rect class="q" x="1063.41" y="258.14" width="4.85" height="4.85" style="animation-delay:0.026s"/><rect class="q" x="1067.97" y="258.14" width="4.85" height="4.85" style="animation-delay:0.037s"/><rect class="q" x="1072.52" y="258.14" width="4.85" height="4.85" style="animation-delay:0.048s"/><rect class="q" x="1081.62" y="258.14" width="4.85" height="4.85" style="animation-delay:0.070s"/><rect class="q" x="1090.72" y="258.14" width="4.85" height="4.85" style="animation-delay:0.093s"/><rect class="q" x="1095.28" y="258.14" width="4.85" height="4.85" style="animation-delay:0.104s"/><rect class="q" x="1104.38" y="258.14" width="4.85" height="4.85" style="animation-delay:0.126s"/><rect class="q" x="1113.48" y="258.14" width="4.85" height="4.85" style="animation-delay:0.149s"/><rect class="q" x="1118.03" y="258.14" width="4.85" height="4.85" style="animation-delay:0.005s"/><rect class="q" x="1127.14" y="258.14" width="4.85" height="4.85" style="animation-delay:0.027s"/><rect class="q" x="1136.24" y="258.14" width="4.85" height="4.85" style="animation-delay:0.050s"/><rect class="q" x="1140.79" y="258.14" width="4.85" height="4.85" style="animation-delay:0.061s"/><rect class="q" x="1149.90" y="258.14" width="4.85" height="4.85" style="animation-delay:0.083s"/><rect class="q" x="1027.00" y="262.69" width="4.85" height="4.85" style="animation-delay:0.102s"/><rect class="q" x="1054.31" y="262.69" width="4.85" height="4.85" style="animation-delay:0.014s"/><rect class="q" x="1063.41" y="262.69" width="4.85" height="4.85" style="animation-delay:0.037s"/><rect class="q" x="1067.97" y="262.69" width="4.85" height="4.85" style="animation-delay:0.048s"/><rect class="q" x="1072.52" y="262.69" width="4.85" height="4.85" style="animation-delay:0.059s"/><rect class="q" x="1077.07" y="262.69" width="4.85" height="4.85" style="animation-delay:0.070s"/><rect class="q" x="1081.62" y="262.69" width="4.85" height="4.85" style="animation-delay:0.082s"/><rect class="q" x="1086.17" y="262.69" width="4.85" height="4.85" style="animation-delay:0.093s"/><rect class="q" x="1090.72" y="262.69" width="4.85" height="4.85" style="animation-delay:0.104s"/><rect class="q" x="1095.28" y="262.69" width="4.85" height="4.85" style="animation-delay:0.115s"/><rect class="q" x="1113.48" y="262.69" width="4.85" height="4.85" style="animation-delay:0.005s"/><rect class="q" x="1118.03" y="262.69" width="4.85" height="4.85" style="animation-delay:0.016s"/><rect class="q" x="1136.24" y="262.69" width="4.85" height="4.85" style="animation-delay:0.061s"/><rect class="q" x="1140.79" y="262.69" width="4.85" height="4.85" style="animation-delay:0.072s"/><rect class="q" x="1154.45" y="262.69" width="4.85" height="4.85" style="animation-delay:0.106s"/><rect class="q" x="1027.00" y="267.24" width="4.85" height="4.85" style="animation-delay:0.114s"/><rect class="q" x="1036.10" y="267.24" width="4.85" height="4.85" style="animation-delay:0.136s"/><rect class="q" x="1040.66" y="267.24" width="4.85" height="4.85" style="animation-delay:0.147s"/><rect class="q" x="1045.21" y="267.24" width="4.85" height="4.85" style="animation-delay:0.003s"/><rect class="q" x="1054.31" y="267.24" width="4.85" height="4.85" style="animation-delay:0.026s"/><rect class="q" x="1067.97" y="267.24" width="4.85" height="4.85" style="animation-delay:0.059s"/><rect class="q" x="1072.52" y="267.24" width="4.85" height="4.85" style="animation-delay:0.070s"/><rect class="q" x="1077.07" y="267.24" width="4.85" height="4.85" style="animation-delay:0.082s"/><rect class="q" x="1099.83" y="267.24" width="4.85" height="4.85" style="animation-delay:0.138s"/><rect class="q" x="1108.93" y="267.24" width="4.85" height="4.85" style="animation-delay:0.005s"/><rect class="q" x="1118.03" y="267.24" width="4.85" height="4.85" style="animation-delay:0.027s"/><rect class="q" x="1122.59" y="267.24" width="4.85" height="4.85" style="animation-delay:0.038s"/><rect class="q" x="1127.14" y="267.24" width="4.85" height="4.85" style="animation-delay:0.050s"/><rect class="q" x="1131.69" y="267.24" width="4.85" height="4.85" style="animation-delay:0.061s"/><rect class="q" x="1136.24" y="267.24" width="4.85" height="4.85" style="animation-delay:0.072s"/><rect class="q" x="1145.34" y="267.24" width="4.85" height="4.85" style="animation-delay:0.094s"/><rect class="q" x="1154.45" y="267.24" width="4.85" height="4.85" style="animation-delay:0.117s"/><rect class="q" x="1027.00" y="271.79" width="4.85" height="4.85" style="animation-delay:0.125s"/><rect class="q" x="1036.10" y="271.79" width="4.85" height="4.85" style="animation-delay:0.147s"/><rect class="q" x="1040.66" y="271.79" width="4.85" height="4.85" style="animation-delay:0.003s"/><rect class="q" x="1045.21" y="271.79" width="4.85" height="4.85" style="animation-delay:0.014s"/><rect class="q" x="1054.31" y="271.79" width="4.85" height="4.85" style="animation-delay:0.037s"/><rect class="q" x="1063.41" y="271.79" width="4.85" height="4.85" style="animation-delay:0.059s"/><rect class="q" x="1072.52" y="271.79" width="4.85" height="4.85" style="animation-delay:0.082s"/><rect class="q" x="1077.07" y="271.79" width="4.85" height="4.85" style="animation-delay:0.093s"/><rect class="q" x="1086.17" y="271.79" width="4.85" height="4.85" style="animation-delay:0.115s"/><rect class="q" x="1113.48" y="271.79" width="4.85" height="4.85" style="animation-delay:0.027s"/><rect class="q" x="1122.59" y="271.79" width="4.85" height="4.85" style="animation-delay:0.050s"/><rect class="q" x="1136.24" y="271.79" width="4.85" height="4.85" style="animation-delay:0.083s"/><rect class="q" x="1140.79" y="271.79" width="4.85" height="4.85" style="animation-delay:0.094s"/><rect class="q" x="1149.90" y="271.79" width="4.85" height="4.85" style="animation-delay:0.117s"/><rect class="q" x="1027.00" y="276.34" width="4.85" height="4.85" style="animation-delay:0.136s"/><rect class="q" x="1036.10" y="276.34" width="4.85" height="4.85" style="animation-delay:0.003s"/><rect class="q" x="1040.66" y="276.34" width="4.85" height="4.85" style="animation-delay:0.014s"/><rect class="q" x="1045.21" y="276.34" width="4.85" height="4.85" style="animation-delay:0.026s"/><rect class="q" x="1054.31" y="276.34" width="4.85" height="4.85" style="animation-delay:0.048s"/><rect class="q" x="1063.41" y="276.34" width="4.85" height="4.85" style="animation-delay:0.070s"/><rect class="q" x="1067.97" y="276.34" width="4.85" height="4.85" style="animation-delay:0.082s"/><rect class="q" x="1077.07" y="276.34" width="4.85" height="4.85" style="animation-delay:0.104s"/><rect class="q" x="1081.62" y="276.34" width="4.85" height="4.85" style="animation-delay:0.115s"/><rect class="q" x="1086.17" y="276.34" width="4.85" height="4.85" style="animation-delay:0.126s"/><rect class="q" x="1090.72" y="276.34" width="4.85" height="4.85" style="animation-delay:0.138s"/><rect class="q" x="1104.38" y="276.34" width="4.85" height="4.85" style="animation-delay:0.016s"/><rect class="q" x="1108.93" y="276.34" width="4.85" height="4.85" style="animation-delay:0.027s"/><rect class="q" x="1113.48" y="276.34" width="4.85" height="4.85" style="animation-delay:0.038s"/><rect class="q" x="1131.69" y="276.34" width="4.85" height="4.85" style="animation-delay:0.083s"/><rect class="q" x="1145.34" y="276.34" width="4.85" height="4.85" style="animation-delay:0.117s"/><rect class="q" x="1154.45" y="276.34" width="4.85" height="4.85" style="animation-delay:0.139s"/><rect class="q" x="1027.00" y="280.90" width="4.85" height="4.85" style="animation-delay:0.147s"/><rect class="q" x="1054.31" y="280.90" width="4.85" height="4.85" style="animation-delay:0.059s"/><rect class="q" x="1067.97" y="280.90" width="4.85" height="4.85" style="animation-delay:0.093s"/><rect class="q" x="1072.52" y="280.90" width="4.85" height="4.85" style="animation-delay:0.104s"/><rect class="q" x="1081.62" y="280.90" width="4.85" height="4.85" style="animation-delay:0.126s"/><rect class="q" x="1086.17" y="280.90" width="4.85" height="4.85" style="animation-delay:0.138s"/><rect class="q" x="1090.72" y="280.90" width="4.85" height="4.85" style="animation-delay:0.149s"/><rect class="q" x="1095.28" y="280.90" width="4.85" height="4.85" style="animation-delay:0.005s"/><rect class="q" x="1104.38" y="280.90" width="4.85" height="4.85" style="animation-delay:0.027s"/><rect class="q" x="1108.93" y="280.90" width="4.85" height="4.85" style="animation-delay:0.038s"/><rect class="q" x="1118.03" y="280.90" width="4.85" height="4.85" style="animation-delay:0.061s"/><rect class="q" x="1127.14" y="280.90" width="4.85" height="4.85" style="animation-delay:0.083s"/><rect class="q" x="1131.69" y="280.90" width="4.85" height="4.85" style="animation-delay:0.094s"/><rect class="q" x="1140.79" y="280.90" width="4.85" height="4.85" style="animation-delay:0.117s"/><rect class="q" x="1149.90" y="280.90" width="4.85" height="4.85" style="animation-delay:0.139s"/><rect class="q" x="1027.00" y="285.45" width="4.85" height="4.85" style="animation-delay:0.003s"/><rect class="q" x="1031.55" y="285.45" width="4.85" height="4.85" style="animation-delay:0.014s"/><rect class="q" x="1036.10" y="285.45" width="4.85" height="4.85" style="animation-delay:0.026s"/><rect class="q" x="1040.66" y="285.45" width="4.85" height="4.85" style="animation-delay:0.037s"/><rect class="q" x="1045.21" y="285.45" width="4.85" height="4.85" style="animation-delay:0.048s"/><rect class="q" x="1049.76" y="285.45" width="4.85" height="4.85" style="animation-delay:0.059s"/><rect class="q" x="1054.31" y="285.45" width="4.85" height="4.85" style="animation-delay:0.070s"/><rect class="q" x="1063.41" y="285.45" width="4.85" height="4.85" style="animation-delay:0.093s"/><rect class="q" x="1077.07" y="285.45" width="4.85" height="4.85" style="animation-delay:0.126s"/><rect class="q" x="1081.62" y="285.45" width="4.85" height="4.85" style="animation-delay:0.138s"/><rect class="q" x="1104.38" y="285.45" width="4.85" height="4.85" style="animation-delay:0.038s"/><rect class="q" x="1108.93" y="285.45" width="4.85" height="4.85" style="animation-delay:0.050s"/><rect class="q" x="1113.48" y="285.45" width="4.85" height="4.85" style="animation-delay:0.061s"/><rect class="q" x="1118.03" y="285.45" width="4.85" height="4.85" style="animation-delay:0.072s"/><rect class="q" x="1122.59" y="285.45" width="4.85" height="4.85" style="animation-delay:0.083s"/><rect class="q" x="1131.69" y="285.45" width="4.85" height="4.85" style="animation-delay:0.106s"/><rect class="q" x="1140.79" y="285.45" width="4.85" height="4.85" style="animation-delay:0.128s"/><rect class="q" x="1149.90" y="285.45" width="4.85" height="4.85" style="animation-delay:0.150s"/>
  <text x="1093" y="318" class="sans ink" font-size="15" font-weight="700" text-anchor="middle" letter-spacing="1.4">TC26-9F7A2B</text>
  <text x="1093" y="337" class="sans mut" font-size="11.5" text-anchor="middle">Scan at the gate</text>

  <g class="sheen" clip-path="url(#cardClip)"><rect x="700" y="56" width="110" height="300" fill="url(#sheen)" transform="skewX(-16)"/></g>
</g>

<g class="stamp">
  <rect x="724" y="282" width="228" height="52" rx="10" fill="none" stroke="#2f7a3a" stroke-width="4" opacity=".9"/>
  <text x="838" y="318" class="serif" font-size="27" font-weight="700" fill="#2f7a3a" text-anchor="middle" opacity=".9">CONFIRMED</text>
</g>
</svg>